<svg xmlns="http://www.w3.org/2000/svg" width="64" height="64" viewBox="0 0 64 64">
  <rect width="64" height="64" rx="14" fill="#FF6A1A"/>
  <g transform="translate(6 6) scale(0.81)" fill="none" stroke="#fff" stroke-width="2.4">
    <path d="M45 12.5 A23 23 0 1 0 51.5 44.5" stroke-linecap="round"/>
    <ellipse cx="26" cy="24.5" rx="5" ry="8.2"/>
    <path d="M26 32.5 L26 50.5" stroke-linecap="round"/>
  </g>
  <g transform="translate(6 6) scale(0.81)" fill="#fff">
    <rect x="36.4" y="13.5" width="1.8" height="11.5" rx="0.9"/>
    <rect x="39.9" y="13.5" width="1.8" height="11.5" rx="0.9"/>
    <rect x="43.4" y="13.5" width="1.8" height="11.5" rx="0.9"/>
    <path d="M37 24h6a3 3 0 0 1 3 3c0 3-2.2 5.2-5 5.6L40.4 50.5a1.4 1.4 0 0 1-2.8 0L38 32.6c-2.8-.4-5-2.6-5-5.6a3 3 0 0 1 3-3z"/>
  </g>
</svg>
